<svg width="1200" height="600" viewBox="0 0 1200 600" xmlns="http://www.w3.org/2000/svg" role="img" aria-label="牙醫診所封面">
  <defs>
    <linearGradient id="grad" x1="0%" y1="0%" x2="100%" y2="100%">
      <stop offset="0%" stop-color="#1c6dd0" stop-opacity="0.9" />
      <stop offset="100%" stop-color="#4f46e5" stop-opacity="0.95" />
    </linearGradient>
    <filter id="shadow" x="-20%" y="-20%" width="140%" height="140%">
      <feDropShadow dx="0" dy="12" stdDeviation="18" flood-color="#0f172a" flood-opacity="0.25" />
    </filter>
  </defs>
  <rect width="1200" height="600" fill="url(#grad)" rx="36" />
  <g transform="translate(120 140)" filter="url(#shadow)">
    <rect width="960" height="320" rx="28" fill="rgba(255,255,255,0.1)" stroke="rgba(255,255,255,0.35)" />
    <g transform="translate(70 80)" fill="none" stroke="#fff" stroke-width="12" stroke-linecap="round" stroke-linejoin="round">
      <path d="M160 140c0 60-40 108-90 108S-20 200 20 140c28-40 96-40 140 0z" opacity="0.9" />
      <path d="M36 112c0-32 26-58 58-58s58 26 58 58" opacity="0.7" />
      <circle cx="94" cy="110" r="16" />
      <path d="M82 146c8 10 16 15 26 15s18-5 26-15" />
    </g>
    <g fill="#fff" transform="translate(360 120)">
      <text x="0" y="0" font-family="'Noto Sans TC', 'Inter', sans-serif" font-size="56" font-weight="800">Hsinchu City Dentists</text>
      <text x="0" y="72" font-family="'Noto Sans TC', 'Inter', sans-serif" font-size="28" opacity="0.82">專業、安心，讓微笑更耀眼</text>
    </g>
  </g>
</svg>
